<?xml version="1.0" encoding="UTF-8" standalone="no"?>
<svg width="68px" height="52px" viewBox="0 0 68 52" version="1.1" xmlns="http://www.w3.org/2000/svg" xmlns:xlink="http://www.w3.org/1999/xlink" xmlns:sketch="http://www.bohemiancoding.com/sketch/ns">
    <!-- Generator: Sketch 3.0.3 (7891) - http://www.bohemiancoding.com/sketch -->
    <title>Imported Layers</title>
    <desc>Created with Sketch.</desc>
    <defs></defs>
    <g id="Page-1" stroke="none" stroke-width="1" fill="none" fill-rule="evenodd" sketch:type="MSPage">
        <g id="Homepage" sketch:type="MSArtboardGroup" transform="translate(-101.000000, -17.000000)" fill="#FFFFFF">
            <g id="Imported-Layers" sketch:type="MSLayerGroup" transform="translate(101.000000, 18.000000)">
                <path d="M18.349,21.237 C19.496,21.914 21.046,21.333 21.81,19.938 C22.575,18.544 22.265,16.864 21.118,16.187 C19.971,15.51 18.422,16.091 17.657,17.485 C16.893,18.879 17.203,20.559 18.349,21.237" id="Fill-1" sketch:type="MSShapeGroup"></path>
                <path d="M67.758,33.861 C67.583,32.372 66.319,33.005 65.716,33.768 C65.356,34.221 62.072,37.806 62.031,34.374 C61.996,31.366 63.938,29.392 64.713,26.645 C65.391,24.244 64.694,21.605 61.89,23.138 C59.693,24.339 57.683,26.764 55.967,29.099 C55.712,29.449 55.434,29.636 55.526,29.309 C56.04,27.497 58.505,23.427 59.257,21.759 C60.54,18.915 61.832,15.883 62.226,12.759 C62.649,9.399 60.872,6.558 57.211,8.175 C54.089,9.556 52.66,13.538 51.876,16.59 C50.721,21.086 50.118,25.131 49.654,30.64 C49.609,31.18 49.53,31.971 49.474,32.864 C47.876,34.605 45.493,36.377 43.137,36.377 C39.919,36.377 39.924,32.342 40.54,30.235 C40.873,29.096 41.567,27.221 42.61,26.512 C43.894,25.641 44.473,26.582 44.192,27.719 C44.021,28.388 43.763,28.861 43.913,29.333 C44.321,30.617 45.979,31.073 47.128,29.243 C50.616,23.696 42.613,20.96 38.855,25.245 C36.59,27.827 35.587,32.562 36.858,35.881 C35.671,36.409 34.381,36.786 33.625,36.375 C31.943,35.459 33.827,29.97 34.333,28.128 C35.129,25.232 33.59,22.009 30.349,24.306 C28.997,25.264 27.922,26.559 27.422,27.24 C27.083,27.702 27.012,27.588 27.012,27.588 C27.035,27.228 27.252,26.231 27.399,24.868 C27.466,24.247 27.427,23.435 26.887,23.152 C26.331,22.86 25.267,22.769 24.554,23.254 C23.954,23.663 23.654,24.997 23.538,25.623 C22.944,28.832 22.303,32.302 22.026,34.797 C20.597,35.848 18.888,36.946 17.843,36.266 C16.573,35.441 17.87,31.537 18.192,30.483 C18.753,28.648 19.407,26.485 19.96,24.508 C20.377,23.014 19.065,22.735 17.36,23.061 C16.462,23.232 15.867,24.111 15.619,24.858 C15.605,24.901 15.591,24.944 15.577,24.986 C14.29,25.481 11.665,26.316 7.719,25.856 C7.749,25.234 7.817,24.717 7.866,24.466 C12.262,4.566 25.991,-3.517 24.447,11.966 C24.406,12.377 24.227,13.703 24.689,14.219 C25.04,14.611 26.012,14.751 26.527,14.029 C27.121,13.197 27.971,10.818 28.109,7.995 C28.556,-1.157 13.073,-10.245 4.218,24.678 L4.182,24.783 C4.173,24.818 4.144,24.947 4.104,25.132 C3.594,24.989 3.069,24.826 2.527,24.639 C1.375,24.242 0.458,25.425 0.395,26.652 C0.332,27.879 1.227,28.627 2.264,28.874 C2.588,28.951 2.91,29.021 3.231,29.085 C3.207,29.185 3.184,29.276 3.167,29.344 C2.859,30.826 1.686,37.334 1.529,40.603 C1.505,41.119 1.372,42.951 1.638,44.848 C1.736,45.549 1.855,46.219 2.036,46.856 C2.216,47.491 2.454,48.052 2.747,48.539 C3.04,49.025 3.719,50.127 5.394,50.215 C6.902,50.295 8.094,49.383 8.503,48.989 C10.511,47.054 10.984,44.582 11.265,43.234 C11.639,41.441 11.542,39.129 11.222,37.744 C10.97,36.654 9.918,32.405 8.378,29.527 C10.557,29.455 12.623,29.033 14.53,28.271 C13.765,30.851 13.187,33.461 13.187,36.227 C13.187,41.326 18.554,39.491 21.874,37.431 C21.913,38.42 22.17,39.392 23.167,39.508 C23.382,39.533 23.477,39.582 23.878,39.46 C24.162,39.372 24.559,39.179 24.871,38.464 C25.256,37.582 26.192,35.45 26.713,34.368 C27.995,31.705 29.168,30.313 30.45,29.147 C30.762,28.863 30.936,29.068 30.859,29.547 C29.933,33.885 28.446,41.619 35.169,39.442 C35.939,39.193 37.093,38.567 38.044,37.833 C39.03,38.901 40.463,39.574 42.429,39.574 C44.813,39.574 46.995,38.014 48.633,36.41 C48.926,36.126 49.191,35.886 49.433,35.674 C49.512,37.298 49.821,38.795 50.642,39.432 C52.88,41.168 54.992,34.632 55.947,33.055 C56.936,31.421 58.453,28.968 59.913,28.282 C60.052,28.217 60.169,28.375 59.913,28.685 C57.778,31.9 56.297,39.696 61.419,39.729 C63.673,39.744 65.805,38.01 66.737,36.896 C67.48,36.009 67.867,34.78 67.758,33.861 L67.758,33.861 Z M6.804,45.03 C6.518,45.707 5.748,46.669 5.415,46.443 C4.717,45.97 4.674,42.211 4.84,39.661 C5.008,37.074 5.886,32.762 5.96,32.506 C6.034,32.251 6.094,32.124 6.142,32.126 C6.286,32.133 6.921,33.297 7.205,34.315 C7.77,36.341 7.886,39.256 7.879,39.834 C7.871,40.412 7.823,42.618 6.804,45.03 L6.804,45.03 Z M53.472,27.759 C53.201,27.749 54.182,21.328 54.923,18.284 C55.225,17.041 56.944,10.913 58.658,10.913 C59.924,10.913 57.686,17.559 57.237,18.82 C57.38,18.445 57.593,17.894 57.173,18.997 C56.005,21.944 53.742,27.768 53.472,27.759 L53.472,27.759 Z" id="Fill-2" sketch:type="MSShapeGroup"></path>
            </g>
        </g>
    </g>
</svg>